<?xml version="1.0" encoding="utf-8"?>
<!-- Generated by IcoMoon.io -->
<svg version="1.1" xmlns="http://www.w3.org/2000/svg" xmlns:xlink="http://www.w3.org/1999/xlink" width="496" height="16" viewBox="0 0 496 16">
<svg id="icon-map-pin" width="16" height="16" viewBox="0 0 16 16" x="0" y="0">
<path fill="none" stroke-linejoin="round" stroke-linecap="round" stroke-miterlimit="4" stroke-width="1.5" stroke="#000" d="M14 6.667c0 4.666-6 8.666-6 8.666s-6-4-6-8.666c0-3.314 2.686-6 6-6s6 2.686 6 6v0z"></path>
<path fill="none" stroke-linejoin="round" stroke-linecap="round" stroke-miterlimit="4" stroke-width="1.5" stroke="#000" d="M8 8.667c1.105 0 2-0.895 2-2s-0.895-2-2-2v0c-1.105 0-2 0.895-2 2s0.895 2 2 2v0z"></path>
</svg>
<svg id="icon-eye" width="16" height="16" viewBox="0 0 16 16" x="32" y="0">
<path fill="none" stroke-linejoin="round" stroke-linecap="round" stroke-miterlimit="4" stroke-width="1.6" stroke="#000" d="M0.666 8s2.667-5.334 7.334-5.334 7.334 5.334 7.334 5.334-2.667 5.334-7.334 5.334-7.334-5.334-7.334-5.334z"></path>
<path fill="none" stroke-linejoin="round" stroke-linecap="round" stroke-miterlimit="4" stroke-width="1.6" stroke="#000" d="M8 10c1.105 0 2-0.895 2-2s-0.895-2-2-2v0c-1.105 0-2 0.895-2 2s0.895 2 2 2v0z"></path>
</svg>
<svg id="icon-eye-off" width="16" height="16" viewBox="0 0 16 16" x="64" y="0">
<path fill="none" stroke-linejoin="round" stroke-linecap="round" stroke-miterlimit="4" stroke-width="1.6" stroke="#000" d="M11.96 11.96c-1.087 0.836-2.461 1.348-3.954 1.374l-0.006 0c-4.666 0-7.334-5.334-7.334-5.334 0.856-1.576 1.989-2.895 3.345-3.939l0.029-0.021M6.6 2.826c0.416-0.102 0.894-0.16 1.386-0.16 0.005 0 0.010 0 0.015 0h-0.001c4.666 0 7.334 5.334 7.334 5.334-0.436 0.807-0.913 1.504-1.455 2.145l0.015-0.018M9.414 9.414c-0.366 0.387-0.882 0.628-1.455 0.628-1.105 0-2-0.895-2-2 0-0.573 0.241-1.090 0.627-1.454l0.001-0.001M0.666 0.666l14.667 14.667"></path>
</svg>
<svg id="icon-heart" width="16" height="16" viewBox="0 0 16 16" x="96" y="0">
<path fill="none" stroke-linejoin="round" stroke-linecap="round" stroke-miterlimit="4" stroke-width="1.2308" stroke="#000" d="M13.894 3.073c-0.664-0.664-1.581-1.075-2.594-1.075s-1.93 0.411-2.594 1.075l-0.706 0.707-0.706-0.707c-0.662-0.653-1.571-1.056-2.575-1.056-2.026 0-3.668 1.642-3.668 3.668 0 1.004 0.403 1.913 1.056 2.575l5.893 5.893 5.894-5.894c0.664-0.664 1.075-1.58 1.075-2.593s-0.411-1.93-1.075-2.593l-0-0z"></path>
</svg>
<svg id="icon-user" width="16" height="16" viewBox="0 0 16 16" x="128" y="0">
<path d="M8 0c2.209 0 4 1.791 4 4s-1.791 4-4 4v0c-2.209 0-4-1.791-4-4s1.791-4 4-4v0zM8 10c4.42 0 8 1.79 8 4v2h-16v-2c0-2.21 3.58-4 8-4z"></path>
</svg>
<svg id="icon-star" width="16" height="16" viewBox="0 0 16 16" x="160" y="0">
<path stroke-linejoin="miter" stroke-linecap="butt" stroke-miterlimit="4" stroke-width="1.2" stroke="#FFC531" fill="#FFC531" d="M6.2 5.197l1.8-3.411 1.8 3.411c0.159 0.302 0.45 0.512 0.785 0.57l3.8 0.658-2.688 2.766c-0.192 0.198-0.311 0.468-0.311 0.767 0 0.055 0.004 0.109 0.012 0.162l-0.001-0.006 0.55 3.818-3.462-1.702c-0.142-0.071-0.308-0.113-0.485-0.113s-0.343 0.042-0.491 0.116l0.006-0.003-3.462 1.702 0.55-3.818c0.007-0.047 0.011-0.101 0.011-0.156 0-0.298-0.119-0.569-0.311-0.767l0 0-2.689-2.766 3.8-0.657c0.343-0.061 0.627-0.274 0.783-0.565l0.003-0.006z"></path>
</svg>
</svg>
